<?xml version="1.0" standalone="no"?>
<!DOCTYPE svg PUBLIC "-//W3C//DTD SVG 20010904//EN"
 "http://www.w3.org/TR/2001/REC-SVG-20010904/DTD/svg10.dtd">
<svg version="1.0" xmlns="http://www.w3.org/2000/svg"
 width="101.000000pt" height="97.000000pt" viewBox="0 0 101.000000 97.000000"
 preserveAspectRatio="xMidYMid meet">

<g transform="translate(0.000000,97.000000) scale(0.100000,-0.100000)"
fill="#5271ff" stroke="none">
<path d="M283 857 c-117 -56 -213 -107 -213 -114 0 -10 89 -13 440 -13 351 0
440 3 440 13 0 12 -424 218 -445 216 -5 0 -106 -46 -222 -102z"/>
<path d="M150 675 l0 -25 360 0 360 0 0 25 0 25 -360 0 -360 0 0 -25z"/>
<path d="M186 569 c-3 -34 -6 -131 -6 -215 l0 -154 45 0 45 0 0 78 c0 44 -3
140 -7 215 l-6 137 -32 0 c-32 0 -32 0 -39 -61z"/>
<path d="M376 553 c-3 -42 -6 -138 -6 -215 l0 -138 45 0 45 0 0 93 c0 52 -3
149 -7 215 l-6 122 -32 0 -32 0 -7 -77z"/>
<path d="M566 538 c-3 -50 -6 -147 -6 -215 l0 -123 45 0 45 0 0 103 c0 56 -3
153 -7 215 l-6 112 -32 0 -32 0 -7 -92z"/>
<path d="M757 523 c-4 -58 -7 -155 -7 -215 l0 -108 45 0 45 0 0 118 c0 64 -3
161 -7 215 l-6 97 -32 0 -32 0 -6 -107z"/>
<path d="M110 145 c0 -20 -5 -25 -25 -25 -21 0 -25 -5 -25 -30 0 -25 -4 -30
-25 -30 -20 0 -25 -5 -25 -25 l0 -25 495 0 495 0 0 25 c0 18 -5 25 -20 25 -16
0 -20 7 -20 30 0 25 -4 30 -25 30 -20 0 -25 5 -25 25 l0 25 -400 0 -400 0 0
-25z"/>
</g>
</svg>
